<?xml version="1.0" encoding="UTF-8"?>
<svg id="Layer_1" data-name="Layer 1" xmlns="http://www.w3.org/2000/svg" xmlns:xlink="http://www.w3.org/1999/xlink" viewBox="0 0 4000 765.74">
  <defs>
    <style>
      .cls-1 {
        fill: url(#linear-gradient);
      }

      .cls-1, .cls-2, .cls-3, .cls-4 {
        stroke-width: 0px;
      }

      .cls-2 {
        fill: url(#linear-gradient-2);
      }

      .cls-3 {
        fill: url(#linear-gradient-3);
      }

      .cls-4 {
        fill: url(#linear-gradient-4);
      }
    </style>
    <linearGradient id="linear-gradient" x1="90.95" y1="973.63" x2="1113.85" y2="973.63" gradientTransform="translate(-11.37 -464.01) rotate(-9.49) scale(1.01 .99) skewX(-9.28)" gradientUnits="userSpaceOnUse">
      <stop offset="0" stop-color="#236993"/>
      <stop offset=".22" stop-color="#21658e"/>
      <stop offset=".46" stop-color="#1d5c81"/>
      <stop offset=".71" stop-color="#154c6c"/>
      <stop offset=".96" stop-color="#0b364f"/>
      <stop offset="1" stop-color="#093249"/>
    </linearGradient>
    <linearGradient id="linear-gradient-2" x1="2236.44" y1="399.16" x2="3920.79" y2="399.16" gradientTransform="matrix(1,0,0,1,0,0)" xlink:href="#linear-gradient"/>
    <linearGradient id="linear-gradient-3" x1="1904.78" y1="456.09" x2="2200.11" y2="456.09" gradientUnits="userSpaceOnUse">
      <stop offset="0" stop-color="#f49328"/>
      <stop offset=".47" stop-color="#f49729"/>
      <stop offset=".97" stop-color="#f4a42f"/>
      <stop offset="1" stop-color="#f4a530"/>
    </linearGradient>
    <linearGradient id="linear-gradient-4" x1="1053.15" y1="406.92" x2="1965.66" y2="406.92" gradientUnits="userSpaceOnUse">
      <stop offset="0" stop-color="#093249"/>
      <stop offset=".42" stop-color="#0f3c54"/>
      <stop offset="1" stop-color="#1b516c"/>
    </linearGradient>
  </defs>
  <path class="cls-1" d="M1097.35,593.01l.59-367.16c-5.93-34.9-17.39-55.14-49.24-55.73-124.61-2.28-504.22-11.38-530.96-13.59-43.94-3.63-71.92-34.63-71.92-34.63l12.18,76.13-315.74-27.8,6.35,51.77s422.4,36.64,465.73,41.43c43.33,4.79,53.82,26.12,49.1,45.8-3.8,15.86-19.73,11.32-59.28,8.72-39.55-2.6-433.17-38.82-433.17-38.82l4.99,53.06s536.45,46.15,566.21,50.22c29.76,4.07,38.12,27.7,33.66,44.01-4.46,16.31-35.52,11.41-51.14,10.02-15.62-1.38-453.01-40.09-453.01-40.09l5.51,52.09s529.82,45.27,564.94,48.71c35.12,3.43,50.14,12.28,52.58,32.3,2.37,19.41-9.43,26.55-40.34,24.68-30.91-1.87-340.22-28.83-340.22-28.83l8.69,61.92c4.86,33.73,29.13,56.54,59.76,56.19l477.19.41c22.67-.26,41.73-26.08,37.53-50.82ZM964.29,387.89c-3.81,14.72-19.73,24.35-35.57,21.52-15.83-2.83-25.58-17.06-21.77-31.78,3.81-14.72,19.73-24.35,35.57-21.52,15.83,2.83,25.58,17.06,21.77,31.78ZM478.27,546.86l7.41,53.62-51.2-3.33-8.35-54.84,52.14,4.54ZM330.75,498.52l7.3,56.38-53.72-3.56-6.76-56.98,53.18,4.16ZM216.11,406.02l8.49,64.14-60.17-5.51-8.74-64.34,60.42,5.71ZM130.86,299.13l6.16,54.85-51.79-4.95-6.02-53.14,51.65,3.24Z"/>
  <path class="cls-2" d="M3920.79,617.23s-187.67,66.54-187.67-74.02v-173.72h-43.9v-73.31h43.9v-91.52l102.27-19.14v110.66h72.38v73.31h-72.38v73.32c0,86.86,1.4,141.17,71.68,103.27l13.72,71.15ZM3697.64,490.17h-194.92c-.44,71.17,87.28,105.39,162.12,41.76l32.8,74.59s-48.14,37.55-149.19,30.68c-101.04-6.88-152.89-88.87-139.66-211.61,13.23-122.74,97.63-157.53,193.09-136.49,90.99,20.07,98.78,119.41,95.75,201.08ZM3557.32,351.53c-55.84,0-57.15,75.27-57.15,75.27h110.5s2.48-75.27-53.36-75.27ZM3282.84,638.04h114.11V157.66h-114.11v480.38ZM3158.93,638.04h114.1V157.66h-114.1v480.38ZM3148.86,437.67v200.37h-91.87v-43.13c-12.37,14.14-43.16,40.69-102.18,43.13-80.6,3.31-112.84-46.6-106.98-116.86,6.63-79.57,87.61-116.38,208.32-98.09-7.28-44.34-64.73-88.44-167.95-33.94l-22.69-75.44s86.33-45.94,189.82-23.25c103.49,22.68,93.53,102.93,93.53,147.2ZM3057,484.22c-14.91-.84-43.99-1.92-70.96.36-56.82,4.81-70.57,82.62-12.08,81.65,45.58-.76,70.3-21.73,83.04-38.53v-43.48ZM2837.4,164.34h-111.45v305.05c0,35.25-28.58,63.82-63.83,63.82s-63.83-28.57-63.83-63.82V164.34h-115.68v305.05c0,35.25-28.58,63.82-63.83,63.82s-63.84-28.57-63.84-63.82V164.34h-118.5v299.67c0,120.57,67.24,176.61,162.34,176.63,95.1.02,138.14-63.69,138.14-63.69l4.23-1.41s31.04,80.41,166.46,62.49c90.43-11.97,129.78-79.42,129.78-185.23V164.34Z"/>
  <path class="cls-3" d="M2167.69,531.82s-38.17,34.28-92.32,31.31c-66.47-3.67-77.78-80.47-77.78-80.47h196.87c3.75-136.78-23.6-199.54-131.42-209.73-107.82-10.2-157.52,82.29-158.24,177.54-.76,100.31,48.81,175.41,145.9,187.74,94.41,11.98,149.41-39.25,149.41-39.25l-32.42-67.15ZM2052.45,344.89c63.44-4.64,66.22,75.58,66.22,75.58h-118.72s-2.03-71.6,52.5-75.58Z"/>
  <polygon class="cls-4" points="1965.66 170.01 1826.7 170.01 1749.13 349.46 1673.25 170.01 1541.02 170.01 1539.12 170.01 1367.19 170.01 1298.26 460.29 1229.34 170.01 1053.15 170.01 1053.15 643.83 1166.58 643.83 1166.58 310.36 1249.56 643.83 1346.97 643.83 1429.95 310.36 1429.95 643.83 1543.38 643.83 1543.38 178.14 1544.48 180.33 1689.96 466.08 1689.96 643.83 1807.51 643.83 1806.72 466.08 1965.66 170.01"/>
</svg>